<?xml version="1.0" encoding="utf-8"?>
<!-- Generator: Adobe Illustrator 17.0.0, SVG Export Plug-In . SVG Version: 6.00 Build 0)  -->
<!DOCTYPE svg PUBLIC "-//W3C//DTD SVG 1.1//EN" "http://www.w3.org/Graphics/SVG/1.1/DTD/svg11.dtd">
<svg version="1.1" id="Layer_1" xmlns="http://www.w3.org/2000/svg" xmlns:xlink="http://www.w3.org/1999/xlink" x="0px" y="0px"
	 width="612px" height="792px" viewBox="0 0 612 792" enable-background="new 0 0 612 792" xml:space="preserve">
<g>
	<circle fill="#FFFFFF" cx="306" cy="396" r="213.628"/>
	<g>
		<path fill="#787878" d="M465.263,237.178c-42.406-42.406-98.788-65.761-158.76-65.761s-116.354,23.354-158.761,65.761
			c-42.406,42.407-65.761,98.789-65.761,158.761s23.354,116.354,65.761,158.76c42.407,42.406,98.789,65.761,158.761,65.761
			s116.354-23.354,158.76-65.761s65.761-98.788,65.761-158.76S507.669,279.584,465.263,237.178z M101.981,395.938
			c0-7.674,0.439-15.246,1.267-22.703H146.3v39.229h-43.648C102.213,407.012,101.981,401.502,101.981,395.938z M506.525,353.235
			h-46.145v-40.192h33.072C499.135,325.809,503.545,339.26,506.525,353.235z M440.381,353.235h-39.17v-40.192h39.17V353.235z
			 M166.3,475.704v-43.239h39.79v43.239H166.3z M206.09,495.704v38.022H166.3v-38.022H206.09z M206.09,313.043v40.192H166.3v-40.192
			H206.09z M166.3,293.043v-34.894h39.79v34.894H166.3z M323.348,353.235h-38.59v-40.192h38.59V353.235z M343.348,313.043h37.862
			v40.192h-37.862V313.043z M284.759,373.235h38.59v39.229h-38.59V373.235z M264.759,412.465H226.09v-39.229h38.669V412.465z
			 M264.759,353.235H226.09v-40.192h38.669V353.235z M206.09,373.235v39.229H166.3v-39.229H206.09z M226.09,432.465h38.669v43.239
			H226.09V432.465z M284.759,432.465h38.59v43.239h-38.59V432.465z M343.348,432.465h37.862v43.239h-37.862V432.465z
			 M343.348,412.465v-39.229h37.862v39.229H343.348z M401.211,373.235h39.17v39.229h-39.17V373.235z M401.211,293.043v-34.894h39.17
			v34.894H401.211z M401.211,238.149v-23.437c12.581,6.602,24.402,14.464,35.276,23.437H401.211z M381.211,238.149h-37.862v-43.4
			c13.095,2.392,25.759,6.031,37.862,10.796V238.149z M381.211,258.149v34.894h-37.862v-34.894H381.211z M323.348,293.043h-38.59
			v-34.894h38.59V293.043z M264.759,293.043H226.09v-34.894h38.669V293.043z M226.09,238.149V207.9
			c12.318-5.288,25.253-9.402,38.669-12.195v42.444H226.09z M206.09,238.149h-29.571c9.215-7.605,19.111-14.409,29.571-20.329
			V238.149z M146.3,293.043h-16.488c4.929-8.432,10.442-16.482,16.488-24.093V293.043z M146.3,313.043v40.192h-39.82
			c2.98-13.975,7.39-27.426,13.073-40.192H146.3z M146.3,432.465v43.239h-28.119c-5.831-13.715-10.205-28.194-12.929-43.239H146.3z
			 M146.3,495.704v27.222c-6.789-8.547-12.904-17.648-18.277-27.222H146.3z M206.09,553.727v20.329
			c-10.46-5.92-20.356-12.724-29.571-20.329H206.09z M226.09,553.727h38.669v42.444c-13.416-2.793-26.351-6.907-38.669-12.195
			V553.727z M226.09,533.727v-38.022h38.669v38.022H226.09z M284.759,495.704h38.59v38.022h-38.59V495.704z M343.348,495.704h37.862
			v38.022h-37.862V495.704z M381.211,553.727v32.604c-12.103,4.766-24.768,8.404-37.862,10.796v-43.4H381.211z M401.211,553.727
			h35.276c-10.874,8.974-22.695,16.836-35.276,23.437V553.727z M401.211,533.727v-38.022h39.17v38.022H401.211z M401.211,475.704
			v-43.239h39.17v43.239H401.211z M460.381,432.465h47.371c-2.724,15.046-7.097,29.524-12.928,43.239h-34.443V432.465z
			 M460.381,412.465v-39.229h49.376c0.827,7.457,1.267,15.029,1.267,22.703c0,5.564-0.232,11.074-0.67,16.526H460.381z
			 M483.193,293.043h-22.812v-31.674C468.946,271.151,476.594,281.754,483.193,293.043z M323.348,192.115v46.034h-38.59v-45.576
			c7.147-0.759,14.4-1.157,21.744-1.157C312.175,191.417,317.791,191.66,323.348,192.115z M284.759,599.302v-45.576h38.59v46.034
			c-5.557,0.455-11.173,0.698-16.846,0.698C299.158,600.459,291.905,600.061,284.759,599.302z M460.381,530.508v-34.803h24.602
			C477.989,508.166,469.733,519.827,460.381,530.508z"/>
		<path d="M372.479,258.476l67.809,27.377v219.615l-68.441,27.384L262.973,424.595l-69.059,53.511l-27.377-13.688V326.91
			l27.377-13.063l69.059,54.128L372.479,258.476z M193.914,354.911v83.372l41.065-42.307L193.914,354.911z M300.928,395.976
			l70.926,56.003V339.973L300.928,395.976z"/>
	</g>
</g>
</svg>
