<?xml version="1.0" encoding="utf-8"?>
<!-- Generator: Adobe Illustrator 17.0.0, SVG Export Plug-In . SVG Version: 6.00 Build 0)  -->
<!DOCTYPE svg PUBLIC "-//W3C//DTD SVG 1.1//EN" "http://www.w3.org/Graphics/SVG/1.1/DTD/svg11.dtd">
<svg version="1.1" id="Layer_1" xmlns="http://www.w3.org/2000/svg" xmlns:xlink="http://www.w3.org/1999/xlink" x="0px" y="0px"
	 width="2304px" height="1296px" viewBox="0 0 2304 1296" enable-background="new 0 0 2304 1296" xml:space="preserve">
<g>
	<radialGradient id="SVGID_1_" cx="330.5343" cy="236.2164" r="316.2416" gradientUnits="userSpaceOnUse">
		<stop  offset="0" style="stop-color:#B27131"/>
		<stop  offset="1" style="stop-color:#C18F48"/>
	</radialGradient>
	<circle fill="url(#SVGID_1_)" cx="360.533" cy="320.212" r="214.521"/>
	<path fill="#D8B980" d="M519.293,161.452c-42.406-42.406-98.788-65.761-158.76-65.761s-116.354,23.354-158.761,65.761
		c-42.406,42.407-65.761,98.789-65.761,158.761s23.354,116.354,65.761,158.76c42.407,42.406,98.789,65.761,158.761,65.761
		s116.354-23.354,158.76-65.761s65.761-98.788,65.761-158.76S561.699,203.859,519.293,161.452z M156.012,320.213
		c0-7.674,0.439-15.246,1.267-22.703h43.052v39.229h-43.648C156.244,331.286,156.012,325.776,156.012,320.213z M560.556,277.51
		h-46.145v-40.192h33.072C553.166,250.083,557.575,263.534,560.556,277.51z M494.411,277.51h-39.17v-40.192h39.17V277.51z
		 M220.33,399.978v-43.239h39.79v43.239H220.33z M260.12,419.978v38.022h-39.79v-38.022H260.12z M260.12,237.317v40.192h-39.79
		v-40.192H260.12z M220.33,217.317v-34.894h39.79v34.894H220.33z M377.379,277.51h-38.59v-40.192h38.59V277.51z M397.379,237.317
		h37.862v40.192h-37.862V237.317z M338.789,297.51h38.59v39.229h-38.59V297.51z M318.789,336.739H280.12V297.51h38.669V336.739z
		 M318.789,277.51H280.12v-40.192h38.669V277.51z M260.12,297.51v39.229h-39.79V297.51H260.12z M280.12,356.739h38.669v43.239
		H280.12V356.739z M338.789,356.739h38.59v43.239h-38.59V356.739z M397.379,356.739h37.862v43.239h-37.862V356.739z
		 M397.379,336.739V297.51h37.862v39.229H397.379z M455.241,297.51h39.17v39.229h-39.17V297.51z M455.241,217.317v-34.894h39.17
		v34.894H455.241z M455.241,162.424v-23.437c12.581,6.602,24.402,14.464,35.276,23.437H455.241z M435.241,162.424h-37.862v-43.4
		c13.095,2.392,25.759,6.031,37.862,10.796V162.424z M435.241,182.424v34.894h-37.862v-34.894H435.241z M377.379,217.317h-38.59
		v-34.894h38.59V217.317z M318.789,217.317H280.12v-34.894h38.669V217.317z M280.12,162.424v-30.249
		c12.318-5.288,25.253-9.402,38.669-12.195v42.444H280.12z M260.12,162.424h-29.571c9.215-7.605,19.111-14.409,29.571-20.329
		V162.424z M200.33,217.317h-16.488c4.929-8.432,10.442-16.482,16.488-24.093V217.317z M200.33,237.317v40.192h-39.82
		c2.98-13.975,7.39-27.426,13.073-40.192H200.33z M200.33,356.739v43.239h-28.119c-5.831-13.715-10.205-28.194-12.929-43.239H200.33
		z M200.33,419.978V447.2c-6.789-8.547-12.904-17.648-18.277-27.222H200.33z M260.12,478.001v20.329
		c-10.46-5.92-20.356-12.724-29.571-20.329H260.12z M280.12,478.001h38.669v42.444c-13.416-2.793-26.351-6.907-38.669-12.195
		V478.001z M280.12,458.001v-38.022h38.669v38.022H280.12z M338.789,419.978h38.59v38.022h-38.59V419.978z M397.379,419.978h37.862
		v38.022h-37.862V419.978z M435.241,478.001v32.604c-12.103,4.766-24.768,8.404-37.862,10.796v-43.4H435.241z M455.241,478.001
		h35.276c-10.874,8.974-22.695,16.836-35.276,23.437V478.001z M455.241,458.001v-38.022h39.17v38.022H455.241z M455.241,399.978
		v-43.239h39.17v43.239H455.241z M514.411,356.739h47.371c-2.724,15.046-7.097,29.524-12.928,43.239h-34.443V356.739z
		 M514.411,336.739V297.51h49.376c0.827,7.457,1.267,15.029,1.267,22.703c0,5.564-0.232,11.074-0.67,16.526H514.411z
		 M537.224,217.317h-22.812v-31.674C522.977,195.425,530.624,206.028,537.224,217.317z M377.379,116.39v46.034h-38.59v-45.576
		c7.147-0.759,14.4-1.157,21.744-1.157C366.206,115.691,371.822,115.934,377.379,116.39z M338.789,523.576v-45.576h38.59v46.034
		c-5.557,0.455-11.173,0.698-16.846,0.698C353.189,524.733,345.936,524.335,338.789,523.576z M514.411,454.782v-34.803h24.602
		C532.019,432.44,523.764,444.101,514.411,454.782z"/>
	<path fill="#984F23" d="M426.51,182.75l67.809,27.377v219.615l-68.441,27.384L317.004,348.869l-69.059,53.511l-27.377-13.688
		V251.184l27.377-13.063l69.059,54.128L426.51,182.75z M247.945,279.186v83.372l41.065-42.307L247.945,279.186z M354.959,320.25
		l70.926,56.003V264.247L354.959,320.25z"/>
</g>
<g>
	<path fill="#787878" d="M1093.262,161.178c-42.406-42.406-98.788-65.761-158.76-65.761s-116.354,23.354-158.761,65.761
		c-42.406,42.407-65.761,98.789-65.761,158.761s23.354,116.354,65.761,158.76c42.407,42.406,98.789,65.761,158.761,65.761
		s116.353-23.354,158.76-65.761s65.761-98.788,65.761-158.76S1135.669,203.584,1093.262,161.178z M729.981,319.938
		c0-7.674,0.439-15.246,1.267-22.703H774.3v39.229h-43.648C730.213,331.012,729.981,325.502,729.981,319.938z M1134.525,277.235
		h-46.145v-40.192h33.072C1127.135,249.809,1131.545,263.26,1134.525,277.235z M1068.381,277.235h-39.17v-40.192h39.17V277.235z
		 M794.3,399.704v-43.239h39.79v43.239H794.3z M834.09,419.704v38.022H794.3v-38.022H834.09z M834.09,237.043v40.192H794.3v-40.192
		H834.09z M794.3,217.043v-34.894h39.79v34.894H794.3z M951.348,277.235h-38.59v-40.192h38.59V277.235z M971.348,237.043h37.862
		v40.192h-37.862V237.043z M912.759,297.235h38.59v39.229h-38.59V297.235z M892.759,336.465H854.09v-39.229h38.669V336.465z
		 M892.759,277.235H854.09v-40.192h38.669V277.235z M834.09,297.235v39.229H794.3v-39.229H834.09z M854.09,356.465h38.669v43.239
		H854.09V356.465z M912.759,356.465h38.59v43.239h-38.59V356.465z M971.348,356.465h37.862v43.239h-37.862V356.465z
		 M971.348,336.465v-39.229h37.862v39.229H971.348z M1029.211,297.235h39.17v39.229h-39.17V297.235z M1029.211,217.043v-34.894
		h39.17v34.894H1029.211z M1029.211,162.149v-23.437c12.581,6.602,24.402,14.464,35.276,23.437H1029.211z M1009.211,162.149h-37.862
		v-43.4c13.095,2.392,25.759,6.031,37.862,10.796V162.149z M1009.211,182.149v34.894h-37.862v-34.894H1009.211z M951.348,217.043
		h-38.59v-34.894h38.59V217.043z M892.759,217.043H854.09v-34.894h38.669V217.043z M854.09,162.149V131.9
		c12.318-5.288,25.253-9.402,38.669-12.195v42.444H854.09z M834.09,162.149h-29.571c9.215-7.605,19.111-14.409,29.571-20.329
		V162.149z M774.3,217.043h-16.488c4.929-8.432,10.442-16.482,16.488-24.093V217.043z M774.3,237.043v40.192h-39.82
		c2.98-13.975,7.39-27.426,13.073-40.192H774.3z M774.3,356.465v43.239h-28.119c-5.831-13.715-10.205-28.194-12.929-43.239H774.3z
		 M774.3,419.704v27.222c-6.789-8.547-12.904-17.648-18.277-27.222H774.3z M834.09,477.727v20.329
		c-10.46-5.92-20.356-12.724-29.571-20.329H834.09z M854.09,477.727h38.669v42.444c-13.416-2.793-26.351-6.907-38.669-12.195
		V477.727z M854.09,457.727v-38.022h38.669v38.022H854.09z M912.759,419.704h38.59v38.022h-38.59V419.704z M971.348,419.704h37.862
		v38.022h-37.862V419.704z M1009.211,477.727v32.604c-12.103,4.766-24.768,8.404-37.862,10.796v-43.4H1009.211z M1029.211,477.727
		h35.276c-10.874,8.974-22.695,16.836-35.276,23.437V477.727z M1029.211,457.727v-38.022h39.17v38.022H1029.211z M1029.211,399.704
		v-43.239h39.17v43.239H1029.211z M1088.381,356.465h47.371c-2.724,15.046-7.097,29.524-12.928,43.239h-34.443V356.465z
		 M1088.381,336.465v-39.229h49.376c0.827,7.457,1.267,15.029,1.267,22.703c0,5.564-0.232,11.074-0.67,16.526H1088.381z
		 M1111.193,217.043h-22.812v-31.674C1096.946,195.151,1104.594,205.754,1111.193,217.043z M951.348,116.115v46.034h-38.59v-45.576
		c7.147-0.759,14.4-1.157,21.744-1.157C940.175,115.417,945.791,115.66,951.348,116.115z M912.759,523.302v-45.576h38.59v46.034
		c-5.557,0.455-11.173,0.698-16.846,0.698C927.158,524.459,919.905,524.061,912.759,523.302z M1088.381,454.508v-34.803h24.602
		C1105.989,432.166,1097.733,443.827,1088.381,454.508z"/>
	<path d="M1000.479,182.476l67.809,27.377v219.615l-68.441,27.384L890.973,348.595l-69.059,53.511l-27.377-13.688V250.91
		l27.377-13.063l69.059,54.128L1000.479,182.476z M821.914,278.911v83.372l41.065-42.307L821.914,278.911z M928.928,319.976
		l70.926,56.003V263.973L928.928,319.976z"/>
</g>
</svg>
