<?xml version="1.0" encoding="utf-8"?>
<!-- Generator: Adobe Illustrator 17.0.0, SVG Export Plug-In . SVG Version: 6.00 Build 0)  -->
<!DOCTYPE svg PUBLIC "-//W3C//DTD SVG 1.1//EN" "http://www.w3.org/Graphics/SVG/1.1/DTD/svg11.dtd">
<svg version="1.1" id="Layer_1" xmlns="http://www.w3.org/2000/svg" xmlns:xlink="http://www.w3.org/1999/xlink" x="0px" y="0px"
	 width="612px" height="792px" viewBox="0 0 612 792" enable-background="new 0 0 612 792" xml:space="preserve">
<g>
	<radialGradient id="SVGID_1_" cx="276.5343" cy="312.2164" r="316.2416" gradientUnits="userSpaceOnUse">
		<stop  offset="0" style="stop-color:#B27131"/>
		<stop  offset="1" style="stop-color:#C18F48"/>
	</radialGradient>
	<circle fill="url(#SVGID_1_)" cx="306.533" cy="396.212" r="214.521"/>
	<path fill="#D8B980" d="M465.293,237.452c-42.406-42.406-98.788-65.761-158.76-65.761s-116.354,23.354-158.761,65.761
		c-42.406,42.407-65.761,98.789-65.761,158.761s23.354,116.354,65.761,158.76c42.407,42.406,98.789,65.761,158.761,65.761
		s116.354-23.354,158.76-65.761s65.761-98.788,65.761-158.76S507.699,279.859,465.293,237.452z M102.012,396.213
		c0-7.674,0.439-15.246,1.267-22.703h43.052v39.229h-43.648C102.244,407.286,102.012,401.776,102.012,396.213z M506.556,353.51
		h-46.145v-40.192h33.072C499.166,326.083,503.575,339.534,506.556,353.51z M440.411,353.51h-39.17v-40.192h39.17V353.51z
		 M166.33,475.978v-43.239h39.79v43.239H166.33z M206.12,495.978v38.022h-39.79v-38.022H206.12z M206.12,313.317v40.192h-39.79
		v-40.192H206.12z M166.33,293.317v-34.894h39.79v34.894H166.33z M323.379,353.51h-38.59v-40.192h38.59V353.51z M343.379,313.317
		h37.862v40.192h-37.862V313.317z M284.789,373.51h38.59v39.229h-38.59V373.51z M264.789,412.739H226.12V373.51h38.669V412.739z
		 M264.789,353.51H226.12v-40.192h38.669V353.51z M206.12,373.51v39.229h-39.79V373.51H206.12z M226.12,432.739h38.669v43.239
		H226.12V432.739z M284.789,432.739h38.59v43.239h-38.59V432.739z M343.379,432.739h37.862v43.239h-37.862V432.739z
		 M343.379,412.739V373.51h37.862v39.229H343.379z M401.241,373.51h39.17v39.229h-39.17V373.51z M401.241,293.317v-34.894h39.17
		v34.894H401.241z M401.241,238.424v-23.437c12.581,6.602,24.402,14.464,35.276,23.437H401.241z M381.241,238.424h-37.862v-43.4
		c13.095,2.392,25.759,6.031,37.862,10.796V238.424z M381.241,258.424v34.894h-37.862v-34.894H381.241z M323.379,293.317h-38.59
		v-34.894h38.59V293.317z M264.789,293.317H226.12v-34.894h38.669V293.317z M226.12,238.424v-30.249
		c12.318-5.288,25.253-9.402,38.669-12.195v42.444H226.12z M206.12,238.424h-29.571c9.215-7.605,19.111-14.409,29.571-20.329
		V238.424z M146.33,293.317h-16.488c4.929-8.432,10.442-16.482,16.488-24.093V293.317z M146.33,313.317v40.192h-39.82
		c2.98-13.975,7.39-27.426,13.073-40.192H146.33z M146.33,432.739v43.239h-28.119c-5.831-13.715-10.205-28.194-12.929-43.239H146.33
		z M146.33,495.978V523.2c-6.789-8.547-12.904-17.648-18.277-27.222H146.33z M206.12,554.001v20.329
		c-10.46-5.92-20.356-12.724-29.571-20.329H206.12z M226.12,554.001h38.669v42.444c-13.416-2.793-26.351-6.907-38.669-12.195
		V554.001z M226.12,534.001v-38.022h38.669v38.022H226.12z M284.789,495.978h38.59v38.022h-38.59V495.978z M343.379,495.978h37.862
		v38.022h-37.862V495.978z M381.241,554.001v32.604c-12.103,4.766-24.768,8.404-37.862,10.796v-43.4H381.241z M401.241,554.001
		h35.276c-10.874,8.974-22.695,16.836-35.276,23.437V554.001z M401.241,534.001v-38.022h39.17v38.022H401.241z M401.241,475.978
		v-43.239h39.17v43.239H401.241z M460.411,432.739h47.371c-2.724,15.046-7.097,29.524-12.928,43.239h-34.443V432.739z
		 M460.411,412.739V373.51h49.376c0.827,7.457,1.267,15.029,1.267,22.703c0,5.564-0.232,11.074-0.67,16.526H460.411z
		 M483.224,293.317h-22.812v-31.674C468.977,271.425,476.624,282.028,483.224,293.317z M323.379,192.39v46.034h-38.59v-45.576
		c7.147-0.759,14.4-1.157,21.744-1.157C312.206,191.691,317.822,191.934,323.379,192.39z M284.789,599.576v-45.576h38.59v46.034
		c-5.557,0.455-11.173,0.698-16.846,0.698C299.189,600.733,291.936,600.335,284.789,599.576z M460.411,530.782v-34.803h24.602
		C478.019,508.44,469.764,520.101,460.411,530.782z"/>
	<path fill="#984F23" d="M372.51,258.75l67.809,27.377v219.615l-68.441,27.384L263.004,424.869l-69.059,53.511l-27.377-13.688
		V327.184l27.377-13.063l69.059,54.128L372.51,258.75z M193.945,355.186v83.372l41.065-42.307L193.945,355.186z M300.959,396.25
		l70.926,56.003V340.247L300.959,396.25z"/>
</g>
</svg>
